<svg height="auto" viewBox="0 0 2000 1400" xmlns="http://www.w3.org/2000/svg"><path d="M0 580.67c57.2 54.965 171.6 236.995 286 274.827 114.4 37.833 171.6 23.72 286-85.665 114.4-109.386 171.6-512.26 286-461.264 114.4 50.997 171.6 663.48 286 716.246 114.4 52.767 171.6-419.34 286-452.411 114.4-33.072 171.6 234.368 286 287.055 114.4 52.687 228.8-18.897 286-23.62L2000 1400H0Z" fill="#34a1c71a"/><path d="M0 580.67c57.2 54.965 171.6 236.995 286 274.827 114.4 37.833 171.6 23.72 286-85.665 114.4-109.386 171.6-512.26 286-461.264 114.4 50.997 171.6 663.48 286 716.246 114.4 52.767 171.6-419.34 286-452.411 114.4-33.072 171.6 234.368 286 287.055 114.4 52.687 228.8-18.897 286-23.62" fill="none" stroke="#34A1C7" stroke-width="6"/></svg>